<?xml version="1.0" encoding="utf-8"?>
<!-- Generator: Adobe Illustrator 23.0.1, SVG Export Plug-In . SVG Version: 6.00 Build 0)  -->
<svg version="1.1" id="Layer_1" xmlns="http://www.w3.org/2000/svg" xmlns:xlink="http://www.w3.org/1999/xlink" x="0px" y="0px"
	 viewBox="0 0 245.48 201" style="enable-background:new 0 0 245.48 201;" xml:space="preserve">
<style type="text/css">
	.st0{fill:#FFFFFF;}
	.st1{fill:#095696;}
</style>
<polygon class="st0" points="89.27,17.04 77.39,0.74 65.54,17.04 22.58,76.1 11.79,76.1 11.79,90.91 35.49,90.91 46.27,76.1 
	77.39,33.32 108.51,76.1 119.3,90.91 143.02,90.91 143.02,76.1 132.23,76.1 "/>
<rect x="63.41" y="62.92" class="st0" width="11.54" height="11.54"/>
<rect x="79.86" y="62.92" class="st0" width="11.54" height="11.54"/>
<rect x="63.41" y="79.38" class="st0" width="11.54" height="11.54"/>
<rect x="79.86" y="79.38" class="st0" width="11.54" height="11.54"/>
<polyline class="st0" points="155.52,51.11 146.98,39.38 136.44,24.91 125.9,39.4 120.27,47.13 130.81,61.6 136.44,53.87 
	153.81,77.74 153.79,77.74 163.38,90.91 184.47,90.91 184.47,77.74 174.89,77.74 168.69,69.21 "/>
<rect x="164.02" y="43.78" class="st0" width="11.41" height="34.2"/>
<rect y="174.53" class="st1" width="245.48" height="0.98"/>
<g>
	<path class="st0" d="M23.93,152.1l-6.4,15.73h-2.09l-6.4-15.73h1.86c0.2,0,0.37,0.05,0.5,0.15c0.13,0.1,0.22,0.23,0.29,0.39
		l4.25,10.69c0.1,0.26,0.2,0.55,0.3,0.87s0.19,0.64,0.27,0.99c0.07-0.34,0.15-0.67,0.24-0.99c0.09-0.31,0.18-0.6,0.28-0.87
		l4.24-10.69c0.05-0.15,0.14-0.27,0.28-0.38c0.14-0.11,0.3-0.16,0.5-0.16H23.93z"/>
	<path class="st0" d="M37.65,167.83h-1.8c-0.2,0-0.37-0.05-0.5-0.15c-0.13-0.1-0.23-0.23-0.28-0.39l-1.39-3.65h-6.93l-1.39,3.65
		c-0.05,0.14-0.15,0.26-0.28,0.38c-0.14,0.11-0.31,0.17-0.5,0.17h-1.8l6.26-15.73h2.35L37.65,167.83z M33.04,161.97l-2.33-6.1
		c-0.17-0.42-0.34-0.94-0.5-1.58c-0.08,0.31-0.16,0.61-0.25,0.88s-0.17,0.51-0.25,0.72l-2.32,6.08H33.04z M31.49,170.52
		c0,0.18-0.04,0.34-0.11,0.5c-0.07,0.16-0.17,0.3-0.29,0.42s-0.26,0.21-0.42,0.28s-0.33,0.1-0.5,0.1s-0.34-0.03-0.5-0.1
		c-0.16-0.07-0.29-0.16-0.41-0.28s-0.21-0.26-0.28-0.42c-0.07-0.16-0.1-0.33-0.1-0.5c0-0.18,0.03-0.35,0.1-0.51s0.16-0.3,0.28-0.42
		c0.12-0.12,0.25-0.22,0.41-0.29c0.16-0.07,0.32-0.1,0.5-0.1s0.34,0.03,0.5,0.1s0.3,0.16,0.42,0.29c0.12,0.12,0.22,0.26,0.29,0.42
		S31.49,170.34,31.49,170.52z"/>
	<path class="st0" d="M52.49,152.1v15.73H51.3c-0.18,0-0.33-0.03-0.45-0.1c-0.12-0.07-0.24-0.17-0.37-0.32l-8.88-11.49
		c0.01,0.2,0.03,0.39,0.04,0.58c0.01,0.19,0.02,0.37,0.02,0.54v10.79h-2.05V152.1h1.2c0.2,0,0.36,0.02,0.46,0.07
		c0.1,0.05,0.21,0.16,0.34,0.32l8.9,11.5c-0.02-0.21-0.04-0.42-0.05-0.62c-0.01-0.2-0.02-0.39-0.02-0.56V152.1H52.49z"/>
	<path class="st0" d="M66.67,152.1c1.01,0,1.88,0.12,2.63,0.35c0.74,0.23,1.36,0.56,1.85,0.99c0.49,0.43,0.85,0.94,1.09,1.55
		s0.36,1.28,0.36,2.02s-0.13,1.41-0.38,2.03c-0.26,0.62-0.63,1.15-1.13,1.59c-0.5,0.45-1.12,0.79-1.86,1.04
		c-0.74,0.24-1.59,0.37-2.56,0.37h-2.43v5.79H61.9V152.1H66.67z M66.67,160.19c0.59,0,1.11-0.08,1.56-0.23
		c0.45-0.15,0.83-0.37,1.13-0.65c0.3-0.28,0.53-0.62,0.68-1.01c0.15-0.39,0.23-0.82,0.23-1.3c0-0.96-0.3-1.71-0.89-2.26
		c-0.59-0.55-1.5-0.82-2.71-0.82h-2.43v6.26H66.67z"/>
	<path class="st0" d="M88.03,152.1v15.73H85.7v-7.08h-8.2v7.08h-2.34V152.1h2.34v6.94h8.2v-6.94H88.03z"/>
	<path class="st0" d="M104.89,167.83h-1.8c-0.2,0-0.37-0.05-0.5-0.15c-0.13-0.1-0.23-0.23-0.28-0.39l-1.39-3.65h-6.93l-1.39,3.65
		c-0.05,0.14-0.15,0.26-0.28,0.38c-0.14,0.11-0.31,0.17-0.5,0.17H90l6.26-15.73h2.35L104.89,167.83z M100.28,161.97l-2.33-6.1
		c-0.17-0.42-0.34-0.94-0.5-1.58c-0.08,0.31-0.16,0.61-0.25,0.88s-0.17,0.51-0.25,0.72l-2.32,6.08H100.28z M101.7,147.52l-3.57,3.13
		c-0.12,0.1-0.24,0.17-0.34,0.2c-0.1,0.03-0.24,0.04-0.41,0.04h-1.54l2.47-3c0.07-0.09,0.13-0.15,0.19-0.2
		c0.06-0.05,0.13-0.08,0.2-0.11c0.07-0.03,0.16-0.04,0.25-0.05c0.1-0.01,0.2-0.01,0.33-0.01H101.7z"/>
	<path class="st0" d="M116.02,154.05h-4.99v13.78h-2.32v-13.78h-5.02v-1.95h12.33V154.05z"/>
	<path class="st0" d="M131.3,154.66c-0.07,0.12-0.15,0.22-0.23,0.27c-0.08,0.06-0.18,0.09-0.31,0.09c-0.13,0-0.28-0.06-0.45-0.18
		c-0.17-0.12-0.38-0.26-0.63-0.4c-0.25-0.15-0.55-0.29-0.9-0.41c-0.35-0.12-0.77-0.18-1.26-0.18c-0.46,0-0.86,0.06-1.21,0.18
		c-0.35,0.12-0.64,0.28-0.87,0.49c-0.23,0.21-0.41,0.45-0.53,0.73c-0.12,0.28-0.18,0.59-0.18,0.91c0,0.42,0.11,0.77,0.32,1.05
		c0.22,0.28,0.5,0.51,0.85,0.71c0.35,0.2,0.75,0.37,1.19,0.51s0.9,0.3,1.37,0.45c0.47,0.16,0.92,0.34,1.37,0.54
		c0.45,0.2,0.84,0.46,1.19,0.77c0.35,0.31,0.63,0.69,0.85,1.14c0.21,0.45,0.32,1,0.32,1.65c0,0.69-0.12,1.34-0.36,1.95
		c-0.24,0.61-0.58,1.14-1.04,1.59s-1.01,0.81-1.67,1.07c-0.66,0.26-1.41,0.39-2.25,0.39c-0.5,0-0.99-0.05-1.47-0.15
		c-0.47-0.1-0.92-0.24-1.35-0.42c-0.42-0.18-0.82-0.39-1.19-0.65c-0.37-0.25-0.7-0.53-0.99-0.85l0.67-1.12
		c0.07-0.09,0.14-0.16,0.24-0.22c0.09-0.06,0.2-0.09,0.31-0.09c0.15,0,0.33,0.08,0.53,0.24c0.2,0.16,0.45,0.34,0.74,0.53
		s0.65,0.37,1.06,0.53c0.41,0.16,0.91,0.24,1.5,0.24c0.48,0,0.91-0.06,1.29-0.19c0.38-0.13,0.7-0.31,0.96-0.55
		c0.26-0.24,0.46-0.52,0.6-0.86s0.21-0.71,0.21-1.12c0-0.46-0.11-0.84-0.32-1.13s-0.49-0.54-0.84-0.73c-0.35-0.2-0.75-0.37-1.19-0.5
		s-0.9-0.28-1.37-0.43c-0.47-0.15-0.92-0.32-1.37-0.52c-0.45-0.2-0.84-0.45-1.19-0.77c-0.35-0.32-0.63-0.72-0.84-1.19
		c-0.21-0.48-0.32-1.07-0.32-1.77c0-0.56,0.11-1.11,0.33-1.63c0.22-0.53,0.54-0.99,0.96-1.4c0.42-0.41,0.94-0.73,1.55-0.97
		s1.31-0.37,2.1-0.37c0.88,0,1.7,0.14,2.44,0.42c0.74,0.28,1.39,0.68,1.93,1.21L131.3,154.66z"/>
	<path class="st0" d="M149.73,159.96c0,1.18-0.19,2.25-0.56,3.24c-0.38,0.98-0.91,1.83-1.59,2.54c-0.69,0.71-1.51,1.26-2.46,1.66
		c-0.96,0.39-2.02,0.59-3.19,0.59c-1.16,0-2.22-0.2-3.18-0.59c-0.96-0.39-1.78-0.95-2.46-1.66c-0.68-0.71-1.21-1.56-1.59-2.54
		c-0.38-0.98-0.57-2.06-0.57-3.24c0-1.17,0.19-2.24,0.57-3.23c0.38-0.99,0.91-1.83,1.59-2.55s1.5-1.27,2.46-1.66s2.02-0.6,3.18-0.6
		c1.17,0,2.23,0.2,3.19,0.6s1.78,0.95,2.46,1.66s1.22,1.56,1.59,2.55C149.54,157.72,149.73,158.79,149.73,159.96z M147.34,159.96
		c0-0.93-0.13-1.77-0.38-2.52s-0.62-1.38-1.09-1.89c-0.47-0.52-1.04-0.92-1.71-1.19c-0.67-0.28-1.42-0.42-2.24-0.42
		c-0.83,0-1.57,0.14-2.24,0.42c-0.67,0.28-1.24,0.68-1.71,1.19c-0.47,0.52-0.84,1.15-1.1,1.89s-0.38,1.58-0.38,2.52
		c0,0.94,0.13,1.78,0.38,2.52c0.26,0.74,0.62,1.37,1.1,1.89c0.47,0.52,1.04,0.91,1.71,1.19c0.67,0.27,1.42,0.41,2.24,0.41
		c0.82,0,1.57-0.14,2.24-0.41c0.67-0.27,1.24-0.67,1.71-1.19c0.47-0.52,0.83-1.15,1.09-1.89
		C147.21,161.75,147.34,160.9,147.34,159.96z M145.56,150.9H144c-0.09,0-0.21-0.02-0.34-0.05c-0.13-0.03-0.26-0.13-0.39-0.3
		l-1.19-1.45l-0.13-0.2l-0.13,0.2l-1.19,1.45c-0.13,0.17-0.26,0.27-0.39,0.3c-0.13,0.03-0.25,0.05-0.34,0.05h-1.49l2.62-2.99h1.93
		L145.56,150.9z"/>
	<path class="st0" d="M165.53,152.1v15.73h-1.18c-0.18,0-0.33-0.03-0.45-0.1c-0.12-0.07-0.24-0.17-0.37-0.32l-8.88-11.49
		c0.01,0.2,0.03,0.39,0.04,0.58c0.01,0.19,0.02,0.37,0.02,0.54v10.79h-2.05V152.1h1.2c0.21,0,0.36,0.02,0.46,0.07
		c0.1,0.05,0.21,0.16,0.34,0.32l8.9,11.5c-0.02-0.21-0.04-0.42-0.05-0.62c-0.01-0.2-0.02-0.39-0.02-0.56V152.1H165.53z"/>
	<path class="st0" d="M182.25,160.17v6.13c-0.8,0.57-1.64,0.99-2.54,1.28c-0.9,0.28-1.88,0.42-2.94,0.42c-1.27,0-2.42-0.2-3.44-0.59
		c-1.03-0.39-1.9-0.95-2.62-1.65c-0.72-0.71-1.28-1.55-1.67-2.54c-0.39-0.99-0.59-2.07-0.59-3.25c0-1.19,0.19-2.28,0.56-3.27
		c0.38-0.99,0.91-1.84,1.62-2.54c0.7-0.7,1.55-1.25,2.54-1.64c1-0.39,2.12-0.59,3.36-0.59c0.63,0,1.21,0.05,1.75,0.14
		c0.54,0.1,1.04,0.23,1.5,0.41s0.89,0.39,1.28,0.63c0.39,0.25,0.75,0.52,1.09,0.83l-0.67,1.05c-0.1,0.17-0.24,0.27-0.41,0.32
		s-0.35,0-0.55-0.12c-0.19-0.11-0.4-0.24-0.63-0.38c-0.23-0.15-0.5-0.28-0.82-0.4c-0.32-0.12-0.69-0.23-1.11-0.32
		c-0.42-0.09-0.92-0.13-1.5-0.13c-0.86,0-1.64,0.14-2.33,0.42c-0.69,0.28-1.28,0.68-1.77,1.21c-0.49,0.53-0.87,1.16-1.13,1.9
		c-0.26,0.74-0.39,1.57-0.39,2.49c0,0.96,0.14,1.83,0.42,2.59c0.28,0.76,0.67,1.41,1.18,1.94s1.12,0.93,1.85,1.21
		s1.54,0.42,2.44,0.42c0.35,0,0.68-0.02,0.98-0.06c0.3-0.04,0.59-0.1,0.87-0.17c0.28-0.07,0.55-0.16,0.8-0.27
		c0.26-0.11,0.52-0.23,0.77-0.36v-3.3h-2.32c-0.15,0-0.27-0.04-0.36-0.13c-0.09-0.09-0.14-0.2-0.14-0.33v-1.33H182.25z"/>
	<path class="st0" d="M203.8,152.1v15.73h-2.33v-7.08h-8.2v7.08h-2.34V152.1h2.34v6.94h8.2v-6.94H203.8z"/>
	<path class="st0" d="M220.66,167.83h-1.8c-0.21,0-0.37-0.05-0.5-0.15c-0.13-0.1-0.23-0.23-0.29-0.39l-1.39-3.65h-6.93l-1.39,3.65
		c-0.05,0.14-0.15,0.26-0.29,0.38c-0.14,0.11-0.31,0.17-0.5,0.17h-1.79l6.26-15.73h2.35L220.66,167.83z M216.82,150.9h-1.55
		c-0.1,0-0.21-0.02-0.34-0.05c-0.13-0.03-0.26-0.13-0.39-0.3l-1.19-1.45l-0.13-0.2l-0.13,0.2l-1.19,1.45
		c-0.13,0.17-0.26,0.27-0.39,0.3c-0.13,0.03-0.25,0.05-0.34,0.05h-1.49l2.62-2.99h1.93L216.82,150.9z M216.05,161.97l-2.33-6.1
		c-0.17-0.42-0.34-0.94-0.5-1.58c-0.08,0.31-0.16,0.61-0.25,0.88s-0.17,0.51-0.25,0.72l-2.32,6.08H216.05z M214.5,170.52
		c0,0.18-0.04,0.34-0.11,0.5c-0.07,0.16-0.17,0.3-0.29,0.42c-0.12,0.12-0.26,0.21-0.42,0.28c-0.16,0.07-0.33,0.1-0.5,0.1
		s-0.34-0.03-0.5-0.1c-0.16-0.07-0.29-0.16-0.41-0.28s-0.21-0.26-0.28-0.42c-0.07-0.16-0.1-0.33-0.1-0.5c0-0.18,0.04-0.35,0.1-0.51
		s0.16-0.3,0.28-0.42c0.12-0.12,0.25-0.22,0.41-0.29c0.16-0.07,0.32-0.1,0.5-0.1s0.34,0.03,0.5,0.1c0.16,0.07,0.3,0.16,0.42,0.29
		c0.12,0.12,0.22,0.26,0.29,0.42C214.46,170.17,214.5,170.34,214.5,170.52z"/>
	<path class="st0" d="M228.38,165.95c0.63,0,1.19-0.11,1.69-0.32c0.5-0.21,0.92-0.51,1.26-0.89c0.34-0.38,0.61-0.84,0.79-1.37
		c0.18-0.53,0.27-1.11,0.27-1.76v-9.52h2.32v9.52c0,0.92-0.15,1.77-0.44,2.55c-0.29,0.78-0.71,1.46-1.26,2.03
		c-0.55,0.57-1.21,1.02-1.99,1.34c-0.78,0.32-1.66,0.48-2.64,0.48s-1.86-0.16-2.64-0.48c-0.78-0.32-1.45-0.77-1.99-1.34
		c-0.55-0.57-0.97-1.24-1.26-2.03c-0.29-0.78-0.44-1.63-0.44-2.55v-9.52h2.33v9.51c0,0.64,0.09,1.23,0.27,1.76
		c0.18,0.53,0.44,0.99,0.78,1.37c0.34,0.38,0.76,0.68,1.26,0.89C227.19,165.85,227.75,165.95,228.38,165.95z"/>
</g>
<g>
	<g>
		<path class="st0" d="M52.59,188.81c0,1.21-0.13,2.26-0.39,3.15c-0.26,0.89-0.62,1.62-1.07,2.21c-0.45,0.58-0.99,1.02-1.6,1.3
			c-0.62,0.28-1.28,0.42-1.98,0.42c-0.71,0-1.37-0.14-1.98-0.42s-1.15-0.72-1.6-1.3c-0.45-0.58-0.81-1.32-1.06-2.21
			c-0.26-0.89-0.39-1.94-0.39-3.15c0-1.21,0.13-2.26,0.39-3.15s0.61-1.63,1.06-2.21c0.45-0.58,0.98-1.02,1.6-1.3
			c0.61-0.28,1.28-0.43,1.98-0.43c0.71,0,1.37,0.14,1.98,0.43c0.61,0.28,1.15,0.72,1.6,1.3c0.45,0.58,0.81,1.32,1.07,2.21
			S52.59,187.6,52.59,188.81z M50.64,188.81c0-1.04-0.09-1.92-0.26-2.62c-0.17-0.7-0.4-1.27-0.69-1.7
			c-0.29-0.43-0.62-0.73-0.99-0.91c-0.37-0.18-0.76-0.27-1.17-0.27c-0.41,0-0.79,0.09-1.17,0.27s-0.7,0.48-0.99,0.91
			c-0.29,0.43-0.51,0.99-0.68,1.7c-0.17,0.7-0.25,1.57-0.25,2.62s0.08,1.92,0.25,2.62c0.17,0.7,0.39,1.26,0.68,1.69
			c0.29,0.42,0.62,0.73,0.99,0.91c0.37,0.18,0.76,0.27,1.17,0.27c0.41,0,0.8-0.09,1.17-0.27c0.37-0.18,0.7-0.48,0.99-0.91
			c0.29-0.42,0.51-0.99,0.69-1.69C50.55,190.73,50.64,189.86,50.64,188.81z"/>
		<path class="st0" d="M63.67,190.26c0.25-0.33,0.49-0.65,0.71-0.97c-0.35,0.26-0.74,0.46-1.16,0.6c-0.43,0.14-0.88,0.2-1.37,0.2
			c-0.51,0-1-0.09-1.46-0.26c-0.47-0.17-0.88-0.43-1.24-0.77s-0.64-0.75-0.85-1.25c-0.21-0.5-0.32-1.07-0.32-1.71
			c0-0.61,0.11-1.17,0.34-1.71c0.23-0.54,0.54-1,0.95-1.4c0.41-0.4,0.9-0.71,1.47-0.94c0.57-0.23,1.2-0.34,1.88-0.34
			c0.68,0,1.29,0.11,1.84,0.33s1.02,0.53,1.41,0.92c0.39,0.4,0.69,0.87,0.9,1.42s0.32,1.16,0.32,1.83c0,0.41-0.04,0.79-0.11,1.16
			s-0.18,0.72-0.32,1.07c-0.14,0.35-0.31,0.69-0.5,1.03s-0.42,0.68-0.67,1.04l-3.33,4.78c-0.09,0.13-0.22,0.24-0.39,0.32
			c-0.17,0.08-0.37,0.13-0.58,0.13h-1.73L63.67,190.26z M59.86,185.97c0,0.86,0.23,1.52,0.7,1.98c0.46,0.46,1.11,0.7,1.93,0.7
			c0.44,0,0.84-0.07,1.18-0.22c0.34-0.14,0.63-0.34,0.86-0.58c0.23-0.24,0.41-0.52,0.54-0.84c0.12-0.32,0.18-0.65,0.18-1
			c0-0.42-0.07-0.8-0.2-1.13s-0.32-0.62-0.56-0.86c-0.24-0.24-0.52-0.42-0.85-0.54c-0.33-0.13-0.68-0.19-1.08-0.19
			c-0.41,0-0.78,0.07-1.11,0.2c-0.33,0.13-0.62,0.32-0.86,0.56s-0.42,0.52-0.55,0.85S59.86,185.58,59.86,185.97z"/>
		<path class="st0" d="M82.72,188.81c0,1.21-0.13,2.26-0.39,3.15c-0.26,0.89-0.62,1.62-1.07,2.21c-0.45,0.58-0.99,1.02-1.6,1.3
			c-0.62,0.28-1.28,0.42-1.98,0.42c-0.71,0-1.37-0.14-1.98-0.42s-1.15-0.72-1.6-1.3c-0.45-0.58-0.81-1.32-1.06-2.21
			c-0.26-0.89-0.39-1.94-0.39-3.15c0-1.21,0.13-2.26,0.39-3.15s0.61-1.63,1.06-2.21c0.45-0.58,0.98-1.02,1.6-1.3
			c0.61-0.28,1.28-0.43,1.98-0.43c0.71,0,1.37,0.14,1.98,0.43c0.61,0.28,1.15,0.72,1.6,1.3c0.45,0.58,0.81,1.32,1.07,2.21
			S82.72,187.6,82.72,188.81z M80.77,188.81c0-1.04-0.09-1.92-0.26-2.62c-0.17-0.7-0.4-1.27-0.69-1.7
			c-0.29-0.43-0.62-0.73-0.99-0.91c-0.37-0.18-0.76-0.27-1.17-0.27c-0.41,0-0.79,0.09-1.17,0.27s-0.7,0.48-0.99,0.91
			c-0.29,0.43-0.51,0.99-0.68,1.7c-0.17,0.7-0.25,1.57-0.25,2.62s0.08,1.92,0.25,2.62c0.17,0.7,0.39,1.26,0.68,1.69
			c0.29,0.42,0.62,0.73,0.99,0.91c0.37,0.18,0.76,0.27,1.17,0.27c0.41,0,0.8-0.09,1.17-0.27c0.37-0.18,0.7-0.48,0.99-0.91
			c0.29-0.42,0.51-0.99,0.69-1.69C80.68,190.73,80.77,189.86,80.77,188.81z"/>
		<path class="st0" d="M88.16,194.62c0-0.17,0.03-0.34,0.1-0.49c0.06-0.16,0.15-0.29,0.27-0.41c0.11-0.12,0.25-0.21,0.4-0.27
			c0.15-0.07,0.32-0.1,0.5-0.1c0.17,0,0.34,0.03,0.49,0.1c0.15,0.07,0.29,0.16,0.41,0.27c0.12,0.12,0.21,0.25,0.28,0.41
			c0.07,0.15,0.1,0.32,0.1,0.49c0,0.18-0.03,0.35-0.1,0.5c-0.07,0.15-0.16,0.29-0.28,0.41c-0.12,0.12-0.25,0.21-0.41,0.27
			c-0.15,0.06-0.32,0.1-0.49,0.1c-0.18,0-0.35-0.03-0.5-0.1c-0.15-0.06-0.29-0.15-0.4-0.27c-0.11-0.12-0.2-0.25-0.27-0.41
			S88.16,194.8,88.16,194.62z"/>
		<path class="st0" d="M105.08,193.96c0.21,0,0.37,0.06,0.48,0.18c0.12,0.12,0.17,0.27,0.17,0.47v1.14h-9.31v-0.65
			c0-0.13,0.03-0.26,0.08-0.41c0.05-0.14,0.14-0.28,0.26-0.39l4.38-4.39c0.37-0.37,0.7-0.72,0.99-1.06c0.3-0.34,0.55-0.68,0.75-1.02
			s0.37-0.68,0.48-1.04c0.11-0.35,0.17-0.73,0.17-1.12c0-0.39-0.06-0.73-0.18-1.02c-0.12-0.29-0.29-0.54-0.5-0.73
			s-0.46-0.34-0.75-0.43c-0.29-0.1-0.6-0.14-0.94-0.14c-0.33,0-0.64,0.05-0.92,0.14c-0.28,0.1-0.53,0.23-0.75,0.41
			s-0.4,0.38-0.55,0.62c-0.15,0.24-0.25,0.5-0.32,0.77c-0.09,0.24-0.2,0.41-0.34,0.49c-0.14,0.08-0.34,0.1-0.6,0.06l-0.98-0.17
			c0.09-0.64,0.27-1.21,0.53-1.7c0.26-0.49,0.6-0.9,0.99-1.23c0.4-0.33,0.86-0.58,1.38-0.75c0.52-0.17,1.08-0.25,1.68-0.25
			c0.61,0,1.16,0.09,1.68,0.27c0.51,0.18,0.95,0.43,1.33,0.77c0.37,0.33,0.67,0.74,0.88,1.22c0.21,0.48,0.32,1.02,0.32,1.63
			c0,0.51-0.08,0.99-0.23,1.43c-0.15,0.44-0.36,0.86-0.62,1.26s-0.56,0.79-0.91,1.16c-0.34,0.38-0.71,0.76-1.1,1.14l-3.52,3.59
			c0.27-0.07,0.54-0.13,0.82-0.17c0.27-0.04,0.53-0.07,0.78-0.07H105.08z"/>
		<path class="st0" d="M121.3,190.69v1.09c0,0.11-0.04,0.2-0.11,0.28c-0.07,0.08-0.17,0.12-0.3,0.12h-1.6v3.57h-1.65v-3.57h-6.08
			c-0.14,0-0.26-0.04-0.36-0.12c-0.1-0.08-0.16-0.18-0.19-0.3l-0.19-0.97l6.7-8.91h1.78v8.82H121.3z M117.64,190.69v-5.41
			c0-0.19,0-0.38,0.01-0.59c0.01-0.21,0.03-0.43,0.06-0.65l-4.86,6.65H117.64z"/>
		<path class="st0" d="M130.38,187.04c-0.11,0.14-0.22,0.28-0.32,0.41s-0.21,0.26-0.3,0.39c0.31-0.2,0.65-0.35,1.03-0.46
			c0.38-0.11,0.78-0.16,1.22-0.16c0.55,0,1.07,0.09,1.56,0.27c0.5,0.18,0.93,0.44,1.31,0.79s0.67,0.78,0.89,1.29
			c0.22,0.52,0.33,1.11,0.33,1.78c0,0.64-0.12,1.23-0.35,1.79c-0.23,0.56-0.56,1.04-0.98,1.45c-0.42,0.41-0.93,0.73-1.51,0.97
			c-0.59,0.24-1.24,0.35-1.95,0.35c-0.71,0-1.35-0.11-1.92-0.34s-1.06-0.55-1.46-0.96s-0.71-0.92-0.93-1.51
			c-0.22-0.59-0.33-1.24-0.33-1.97c0-0.62,0.13-1.27,0.4-1.96c0.27-0.69,0.69-1.42,1.27-2.2l3.47-4.65c0.1-0.13,0.23-0.24,0.41-0.32
			s0.37-0.13,0.6-0.13h1.68L130.38,187.04z M131.27,194.33c0.44,0,0.85-0.07,1.21-0.22c0.36-0.14,0.67-0.34,0.93-0.59
			s0.46-0.55,0.6-0.9s0.21-0.72,0.21-1.13c0-0.44-0.07-0.84-0.21-1.19s-0.33-0.65-0.58-0.89c-0.25-0.24-0.54-0.43-0.89-0.56
			c-0.35-0.13-0.73-0.19-1.16-0.19c-0.44,0-0.84,0.08-1.2,0.23s-0.66,0.35-0.91,0.61c-0.25,0.25-0.45,0.55-0.58,0.89
			c-0.13,0.34-0.2,0.7-0.2,1.07c0,0.43,0.06,0.82,0.18,1.17c0.12,0.35,0.3,0.66,0.54,0.91c0.24,0.25,0.53,0.45,0.87,0.59
			S130.83,194.33,131.27,194.33z"/>
		<path class="st0" d="M151.43,190.69v1.09c0,0.11-0.04,0.2-0.11,0.28c-0.07,0.08-0.17,0.12-0.3,0.12h-1.6v3.57h-1.65v-3.57h-6.08
			c-0.14,0-0.26-0.04-0.36-0.12c-0.1-0.08-0.16-0.18-0.19-0.3l-0.19-0.97l6.7-8.91h1.78v8.82H151.43z M147.77,190.69v-5.41
			c0-0.19,0-0.38,0.01-0.59c0.01-0.21,0.03-0.43,0.06-0.65l-4.86,6.65H147.77z"/>
		<path class="st0" d="M156.84,194.62c0-0.17,0.03-0.34,0.1-0.49c0.06-0.16,0.15-0.29,0.27-0.41c0.11-0.12,0.25-0.21,0.4-0.27
			c0.16-0.07,0.32-0.1,0.5-0.1c0.17,0,0.34,0.03,0.49,0.1c0.16,0.07,0.29,0.16,0.41,0.27c0.12,0.12,0.21,0.25,0.28,0.41
			c0.07,0.15,0.1,0.32,0.1,0.49c0,0.18-0.03,0.35-0.1,0.5c-0.07,0.15-0.16,0.29-0.28,0.41c-0.12,0.12-0.25,0.21-0.41,0.27
			c-0.15,0.06-0.32,0.1-0.49,0.1c-0.18,0-0.35-0.03-0.5-0.1c-0.15-0.06-0.29-0.15-0.4-0.27c-0.11-0.12-0.2-0.25-0.27-0.41
			S156.84,194.8,156.84,194.62z"/>
		<path class="st0" d="M174.11,194.31v1.44h-7.49v-1.44h2.94v-9.09c0-0.29,0.01-0.59,0.03-0.9l-2.36,2
			c-0.09,0.07-0.18,0.12-0.27,0.14c-0.09,0.02-0.18,0.02-0.26,0.01c-0.08-0.01-0.15-0.04-0.21-0.08s-0.11-0.09-0.15-0.13l-0.59-0.82
			l4.15-3.58h1.54v12.46H174.11z"/>
		<path class="st0" d="M189.95,188.81c0,1.21-0.13,2.26-0.39,3.15c-0.26,0.89-0.62,1.62-1.07,2.21c-0.45,0.58-0.99,1.02-1.6,1.3
			s-1.28,0.42-1.98,0.42c-0.71,0-1.37-0.14-1.98-0.42s-1.15-0.72-1.6-1.3c-0.45-0.58-0.81-1.32-1.06-2.21
			c-0.26-0.89-0.39-1.94-0.39-3.15c0-1.21,0.13-2.26,0.39-3.15c0.26-0.89,0.61-1.63,1.06-2.21c0.45-0.58,0.98-1.02,1.6-1.3
			c0.62-0.28,1.28-0.43,1.98-0.43c0.71,0,1.37,0.14,1.98,0.43c0.62,0.28,1.15,0.72,1.6,1.3c0.45,0.58,0.81,1.32,1.07,2.21
			C189.82,186.55,189.95,187.6,189.95,188.81z M188,188.81c0-1.04-0.08-1.92-0.26-2.62c-0.17-0.7-0.4-1.27-0.69-1.7
			c-0.29-0.43-0.62-0.73-0.99-0.91c-0.37-0.18-0.76-0.27-1.17-0.27c-0.41,0-0.79,0.09-1.17,0.27c-0.37,0.18-0.7,0.48-0.99,0.91
			c-0.29,0.43-0.51,0.99-0.68,1.7s-0.25,1.57-0.25,2.62s0.08,1.92,0.25,2.62c0.17,0.7,0.39,1.26,0.68,1.69
			c0.29,0.42,0.62,0.73,0.99,0.91c0.37,0.18,0.76,0.27,1.17,0.27c0.41,0,0.79-0.09,1.17-0.27c0.37-0.18,0.7-0.48,0.99-0.91
			c0.29-0.42,0.52-0.99,0.69-1.69C187.91,190.73,188,189.86,188,188.81z"/>
		<path class="st0" d="M197.97,187.05c0.71-0.15,1.35-0.22,1.92-0.22c0.72,0,1.36,0.11,1.91,0.32s1.02,0.51,1.4,0.89
			c0.38,0.38,0.66,0.82,0.85,1.33s0.29,1.07,0.29,1.67c0,0.73-0.13,1.4-0.39,2s-0.61,1.11-1.06,1.54c-0.45,0.43-0.98,0.75-1.6,0.98
			s-1.28,0.34-1.98,0.34c-0.42,0-0.82-0.04-1.19-0.13c-0.38-0.08-0.73-0.2-1.06-0.33c-0.33-0.14-0.63-0.3-0.91-0.48
			c-0.28-0.18-0.53-0.37-0.75-0.57l0.58-0.81c0.12-0.18,0.29-0.27,0.49-0.27c0.14,0,0.29,0.05,0.45,0.15
			c0.16,0.1,0.36,0.21,0.58,0.33c0.23,0.12,0.49,0.23,0.8,0.33c0.31,0.1,0.68,0.15,1.1,0.15c0.47,0,0.89-0.08,1.27-0.23
			c0.38-0.15,0.7-0.37,0.96-0.64s0.46-0.61,0.6-1c0.14-0.39,0.21-0.81,0.21-1.28c0-0.42-0.06-0.79-0.18-1.13
			c-0.12-0.33-0.31-0.62-0.55-0.86s-0.55-0.42-0.92-0.55c-0.37-0.13-0.79-0.19-1.28-0.19c-0.68,0-1.41,0.12-2.18,0.37l-1.19-0.35
			l1.13-6.55h6.64v0.82c0,0.27-0.08,0.49-0.26,0.66c-0.17,0.17-0.46,0.26-0.85,0.26h-4.22L197.97,187.05z"/>
	</g>
</g>
<path class="st0" d="M203.66,119.73c0,0-0.79-0.24-2.28-0.63c-1.48-0.41-3.68-0.91-6.46-1.5c-5.57-1.17-13.55-2.55-23.14-3.42
	c-4.79-0.44-9.98-0.75-15.47-0.87c-5.48-0.13-11.25-0.04-17.2,0.25c-2.97,0.15-5.99,0.38-9.05,0.62c-1.53,0.15-3.06,0.3-4.6,0.46
	c-1.54,0.18-3.08,0.36-4.63,0.55c-1.55,0.17-3.1,0.43-4.66,0.65c-1.56,0.21-3.11,0.48-4.67,0.74c-3.13,0.47-6.24,1.11-9.35,1.72
	l-4.66,0.99c-1.55,0.31-3.09,0.73-4.63,1.09l-2.31,0.56c-0.81,0.19-1.62,0.38-2.43,0.58c-0.79,0.18-1.57,0.36-2.36,0.55
	c-0.8,0.18-1.65,0.34-2.47,0.52c-0.83,0.17-1.65,0.34-2.47,0.51c-0.82,0.15-1.63,0.29-2.44,0.43c-0.81,0.14-1.62,0.28-2.43,0.4
	c-0.81,0.11-1.62,0.22-2.43,0.33c-3.23,0.44-6.45,0.77-9.63,0.95c-6.36,0.39-12.56,0.19-18.39-0.47
	c-5.83-0.67-11.28-1.91-16.15-3.48c-2.43-0.82-4.72-1.68-6.85-2.63c-2.12-0.97-4.09-1.94-5.88-2.98c-3.59-2.05-6.48-4.18-8.72-6.07
	c-2.25-1.88-3.82-3.55-4.88-4.68c-0.53-0.56-0.91-1.02-1.17-1.33c-0.26-0.3-0.39-0.46-0.39-0.46s0.69,0.46,2,1.27
	c1.29,0.82,3.24,1.94,5.76,3.22c2.52,1.26,5.63,2.65,9.3,3.88c3.65,1.26,7.86,2.33,12.49,3.11c2.32,0.36,4.73,0.72,7.26,0.89
	c1.25,0.12,2.54,0.18,3.84,0.26c1.31,0.04,2.63,0.09,3.97,0.09c5.37,0.03,11.03-0.32,16.85-1.09c2.91-0.42,5.87-0.83,8.85-1.42
	c0.74-0.14,1.49-0.29,2.24-0.43c0.75-0.16,1.5-0.33,2.25-0.49c0.75-0.16,1.5-0.32,2.26-0.48c0.74-0.18,1.48-0.35,2.22-0.53
	c0.75-0.18,1.47-0.34,2.24-0.54c0.78-0.21,1.56-0.42,2.34-0.62l2.28-0.6l2.42-0.61c3.23-0.85,6.5-1.57,9.78-2.28
	c3.3-0.61,6.59-1.24,9.9-1.71l2.48-0.37c0.83-0.11,1.66-0.19,2.48-0.29c1.66-0.17,3.3-0.4,4.94-0.52c1.65-0.13,3.28-0.29,4.91-0.4
	c1.64-0.08,3.26-0.15,4.88-0.22c3.23-0.1,6.43-0.16,9.57-0.06c6.28,0.12,12.35,0.62,18.04,1.37c5.7,0.76,11.04,1.79,15.9,2.98
	c4.86,1.19,9.25,2.54,13.06,3.91c3.82,1.37,7.07,2.74,9.7,3.98c2.63,1.22,4.62,2.35,5.97,3.11
	C202.99,119.25,203.66,119.73,203.66,119.73z"/>
<path class="st0" d="M104.4,129.05c0,0,0.53-0.16,1.52-0.42c0.99-0.27,2.45-0.6,4.3-1c3.71-0.78,9.03-1.7,15.41-2.27
	c3.19-0.29,6.65-0.5,10.3-0.58c3.65-0.08,7.49-0.03,11.46,0.17c1.98,0.1,3.99,0.25,6.03,0.42c1.02,0.1,2.04,0.2,3.06,0.3
	c1.02,0.12,2.05,0.24,3.09,0.36c1.03,0.11,2.06,0.29,3.1,0.43c1.04,0.14,2.07,0.32,3.11,0.49c2.08,0.31,4.16,0.74,6.23,1.14
	l3.1,0.66c1.04,0.21,2.06,0.49,3.08,0.72l1.54,0.37c0.54,0.13,1.08,0.26,1.62,0.38c0.52,0.12,1.05,0.24,1.57,0.36
	c0.53,0.12,1.1,0.23,1.64,0.34c0.55,0.11,1.1,0.22,1.65,0.34c0.54,0.1,1.09,0.19,1.63,0.29c0.54,0.09,1.08,0.19,1.62,0.27
	c0.54,0.07,1.08,0.15,1.62,0.22c2.15,0.3,4.3,0.51,6.42,0.63c4.23,0.26,8.37,0.13,12.25-0.31c3.88-0.45,7.52-1.27,10.76-2.32
	c1.62-0.55,3.15-1.12,4.56-1.75c1.41-0.64,2.73-1.29,3.91-1.99c2.39-1.36,4.32-2.78,5.81-4.04c1.5-1.25,2.54-2.37,3.25-3.12
	c0.35-0.37,0.61-0.68,0.78-0.89c0.17-0.2,0.26-0.31,0.26-0.31s-0.46,0.3-1.33,0.84c-0.86,0.55-2.16,1.29-3.84,2.14
	c-1.68,0.84-3.75,1.77-6.19,2.58c-2.43,0.84-5.23,1.55-8.32,2.07c-1.55,0.24-3.15,0.48-4.83,0.59c-0.84,0.08-1.69,0.12-2.56,0.17
	c-0.87,0.03-1.75,0.06-2.64,0.06c-3.57,0.02-7.34-0.21-11.22-0.72c-1.94-0.28-3.91-0.55-5.89-0.95c-0.5-0.1-0.99-0.19-1.49-0.29
	c-0.5-0.11-1-0.22-1.5-0.32c-0.5-0.11-1-0.21-1.5-0.32c-0.49-0.12-0.98-0.24-1.48-0.35c-0.5-0.12-0.98-0.23-1.49-0.36
	c-0.52-0.14-1.04-0.28-1.56-0.42l-1.52-0.4l-1.61-0.41c-2.15-0.57-4.33-1.05-6.51-1.52c-2.2-0.41-4.39-0.83-6.59-1.14l-1.65-0.24
	c-0.55-0.08-1.1-0.13-1.65-0.19c-1.1-0.12-2.2-0.27-3.29-0.35c-1.1-0.09-2.19-0.19-3.27-0.26c-1.09-0.05-2.17-0.1-3.25-0.15
	c-2.15-0.07-4.28-0.11-6.38-0.04c-4.19,0.08-8.22,0.41-12.02,0.91c-3.8,0.5-7.35,1.19-10.59,1.98c-3.24,0.8-6.16,1.69-8.7,2.6
	c-2.54,0.91-4.71,1.83-6.46,2.65c-1.75,0.81-3.08,1.56-3.97,2.07C104.85,128.73,104.4,129.05,104.4,129.05z"/>
<g>
	<path class="st0" d="M163.25,36.37c-0.18-0.21-0.37-0.43-0.58-0.66c-0.2-0.24-0.39-0.49-0.6-0.75c-0.2-0.26-0.42-0.53-0.64-0.82
		c-0.21-0.29-0.42-0.59-0.64-0.9c-0.11-0.16-0.22-0.31-0.33-0.47c-0.11-0.16-0.21-0.33-0.32-0.5c-0.21-0.34-0.44-0.67-0.65-1.02
		c-0.41-0.72-0.86-1.44-1.24-2.22c-0.41-0.76-0.76-1.56-1.13-2.35c-0.32-0.81-0.67-1.61-0.94-2.43c-0.3-0.8-0.52-1.62-0.76-2.39
		c-0.11-0.39-0.2-0.78-0.29-1.16c-0.05-0.19-0.09-0.38-0.14-0.56c-0.04-0.19-0.07-0.37-0.11-0.55c-0.07-0.36-0.14-0.72-0.21-1.06
		c-0.06-0.34-0.1-0.68-0.15-1c-0.05-0.32-0.1-0.62-0.13-0.91c-0.03-0.29-0.06-0.57-0.08-0.83c-0.03-0.26-0.05-0.5-0.07-0.73
		c-0.02-0.23-0.02-0.43-0.04-0.62c-0.02-0.44-0.04-0.76-0.05-0.96l-0.73-5.81c-0.65,1.55-9.59,23.45,3.82,29.79
		c0,0,3.17,1.24,6.3-0.03c0.1-0.04,0.2-0.08,0.3-0.12c0.06-0.02,0.12-0.05,0.18-0.08c-0.08-0.08-0.17-0.17-0.26-0.28
		C163.6,36.78,163.43,36.58,163.25,36.37"/>
	<path class="st0" d="M166.93,21.83c-0.93-0.95-2.02-1.92-3.29-2.9c-10.5-8.08-10.18-11.35-10.18-11.35l-0.04,0.09
		c0.19,1.48,0.5,3.93,0.73,5.77c-0.01-0.11-0.01-0.17-0.01-0.17s0.07,0.42,0.2,1.16c0.03,0.18,0.06,0.39,0.11,0.61
		c0.05,0.22,0.1,0.46,0.16,0.71c0.06,0.25,0.12,0.52,0.18,0.8c0.07,0.28,0.16,0.57,0.24,0.88c0.09,0.31,0.17,0.63,0.27,0.95
		c0.11,0.32,0.22,0.66,0.33,1.01c0.06,0.17,0.11,0.35,0.17,0.52c0.07,0.17,0.13,0.35,0.2,0.53c0.14,0.35,0.27,0.72,0.42,1.08
		c0.32,0.72,0.62,1.48,1.01,2.21c0.35,0.75,0.77,1.47,1.17,2.2c0.44,0.71,0.86,1.43,1.34,2.09c0.45,0.68,0.95,1.32,1.41,1.94
		c0.24,0.3,0.49,0.59,0.73,0.88c0.12,0.14,0.24,0.28,0.35,0.42c0.12,0.13,0.24,0.27,0.36,0.4c0.24,0.26,0.47,0.51,0.69,0.76
		c0.23,0.24,0.46,0.46,0.68,0.68c0.22,0.21,0.43,0.43,0.63,0.62c0.2,0.18,0.4,0.36,0.58,0.52c0.18,0.16,0.35,0.32,0.51,0.46
		c0.16,0.14,0.33,0.27,0.47,0.39c0.17,0.14,0.31,0.26,0.44,0.36c0.44-0.41,0.84-0.85,1.19-1.33
		C165.46,30.59,164.95,25.84,166.93,21.83"/>
	<path class="st0" d="M188.08,0.12l-0.94,7.51c-0.01,0.25-0.04,0.67-0.07,1.24c-0.01,0.24-0.02,0.51-0.05,0.8
		c-0.03,0.29-0.06,0.6-0.09,0.94c-0.03,0.34-0.07,0.69-0.11,1.07c-0.04,0.38-0.11,0.77-0.17,1.18c-0.07,0.41-0.12,0.84-0.2,1.29
		c-0.09,0.44-0.18,0.9-0.27,1.37c-0.05,0.24-0.1,0.47-0.14,0.72c-0.06,0.24-0.12,0.48-0.18,0.72c-0.12,0.49-0.24,0.99-0.38,1.5
		c-0.3,1-0.59,2.05-0.98,3.09c-0.34,1.05-0.79,2.08-1.21,3.13c-0.47,1.02-0.92,2.06-1.46,3.04c-0.49,1-1.07,1.94-1.6,2.86
		c-0.28,0.45-0.57,0.89-0.85,1.32c-0.14,0.22-0.28,0.43-0.42,0.64c-0.14,0.2-0.29,0.41-0.43,0.61c-0.29,0.4-0.56,0.79-0.83,1.16
		c-0.27,0.37-0.56,0.72-0.82,1.06c-0.27,0.34-0.52,0.66-0.77,0.97c-0.26,0.3-0.51,0.59-0.75,0.86c-0.23,0.27-0.46,0.52-0.66,0.76
		c-0.12,0.13-0.23,0.25-0.33,0.36c0.08,0.03,0.15,0.07,0.23,0.1c0.13,0.05,0.26,0.1,0.39,0.15c4.04,1.63,8.14,0.04,8.14,0.04
		C200.46,30.42,188.92,2.12,188.08,0.12"/>
	<path class="st0" d="M175.07,32.1c0.29-0.32,0.59-0.65,0.9-0.98c0.15-0.17,0.31-0.34,0.47-0.52c0.15-0.18,0.3-0.36,0.46-0.55
		c0.31-0.37,0.63-0.75,0.94-1.14c0.6-0.8,1.24-1.62,1.82-2.5c0.62-0.86,1.16-1.79,1.73-2.71c0.52-0.94,1.07-1.88,1.52-2.84
		c0.49-0.95,0.89-1.92,1.3-2.85c0.19-0.47,0.36-0.94,0.54-1.4c0.09-0.23,0.17-0.46,0.26-0.68c0.08-0.23,0.15-0.45,0.22-0.68
		c0.15-0.45,0.29-0.88,0.43-1.3c0.13-0.42,0.23-0.84,0.35-1.23c0.11-0.4,0.22-0.78,0.31-1.14c0.08-0.37,0.16-0.71,0.23-1.04
		c0.07-0.33,0.14-0.63,0.21-0.92c0.06-0.28,0.1-0.55,0.14-0.78c0.17-0.95,0.26-1.49,0.26-1.49s0,0.08-0.01,0.22
		c0.3-2.38,0.7-5.54,0.94-7.46C188.04,0.04,188.03,0,188.03,0s0.41,4.21-13.15,14.66c-1.89,1.45-3.46,2.89-4.76,4.29
		c-0.83,0.89-1.49,1.87-2,2.89c-1.98,4.01-1.47,8.76,1.04,12.31c0.48,0.68,1.03,1.31,1.65,1.89c0.16-0.13,0.35-0.29,0.57-0.47
		c0.18-0.15,0.4-0.32,0.61-0.51c0.2-0.18,0.42-0.38,0.65-0.59c0.23-0.21,0.48-0.44,0.75-0.67c0.26-0.24,0.53-0.52,0.81-0.8
		C174.48,32.7,174.78,32.42,175.07,32.1"/>
</g>
</svg>
