<?xml version="1.0" encoding="utf-8"?>
<!-- Generator: Adobe Illustrator 23.0.1, SVG Export Plug-In . SVG Version: 6.00 Build 0)  -->
<svg version="1.1" id="Layer_1" xmlns="http://www.w3.org/2000/svg" xmlns:xlink="http://www.w3.org/1999/xlink" x="0px" y="0px"
	 viewBox="0 0 245.48 201" style="enable-background:new 0 0 245.48 201;" xml:space="preserve">
<style type="text/css">
	.st0{fill:#FFFFFF;}
	.st1{fill:#095696;}
	.st2{font-family:'Lato-Medium';}
	.st3{font-size:21.9017px;}
	.st4{font-size:19.3141px;}
	.st5{letter-spacing:3;}
</style>
<polygon class="st0" points="89.27,17.04 77.39,0.74 65.54,17.04 22.58,76.1 11.79,76.1 11.79,90.91 35.49,90.91 46.27,76.1 
	77.39,33.32 108.51,76.1 119.3,90.91 143.02,90.91 143.02,76.1 132.23,76.1 "/>
<rect x="63.41" y="62.92" class="st0" width="11.54" height="11.54"/>
<rect x="79.86" y="62.92" class="st0" width="11.54" height="11.54"/>
<rect x="63.41" y="79.38" class="st0" width="11.54" height="11.54"/>
<rect x="79.86" y="79.38" class="st0" width="11.54" height="11.54"/>
<polyline class="st0" points="155.52,51.11 146.98,39.38 136.44,24.91 125.9,39.4 120.27,47.13 130.81,61.6 136.44,53.87 
	153.81,77.74 153.79,77.74 163.38,90.91 184.47,90.91 184.47,77.74 174.89,77.74 168.69,69.21 "/>
<rect x="164.02" y="43.78" class="st0" width="11.41" height="34.2"/>
<rect y="174.53" class="st1" width="245.48" height="0.98"/>
<text transform="matrix(1 0 0 1 7.134 167.8252)" class="st0 st2 st3">VẠN PHÁT SÔNG HẬU</text>
<g>
	<text transform="matrix(1 0 0 1 41.9475 195.7461)" class="st0 st2 st4 st5">090.2464.105</text>
</g>
<path class="st0" d="M203.66,119.73c0,0-0.79-0.24-2.28-0.63c-1.48-0.41-3.68-0.91-6.46-1.5c-5.57-1.17-13.55-2.55-23.14-3.42
	c-4.79-0.44-9.98-0.75-15.47-0.87c-5.48-0.13-11.25-0.04-17.2,0.25c-2.97,0.15-5.99,0.38-9.05,0.62c-1.53,0.15-3.06,0.3-4.6,0.46
	c-1.54,0.18-3.08,0.36-4.63,0.55c-1.55,0.17-3.1,0.43-4.66,0.65c-1.56,0.21-3.11,0.48-4.67,0.74c-3.13,0.47-6.24,1.11-9.35,1.72
	l-4.66,0.99c-1.55,0.31-3.09,0.73-4.63,1.09l-2.31,0.56c-0.81,0.19-1.62,0.38-2.43,0.58c-0.79,0.18-1.57,0.36-2.36,0.55
	c-0.8,0.18-1.65,0.34-2.47,0.52c-0.83,0.17-1.65,0.34-2.47,0.51c-0.82,0.15-1.63,0.29-2.44,0.43c-0.81,0.14-1.62,0.28-2.43,0.4
	c-0.81,0.11-1.62,0.22-2.43,0.33c-3.23,0.44-6.45,0.77-9.63,0.95c-6.36,0.39-12.56,0.19-18.39-0.47
	c-5.83-0.67-11.28-1.91-16.15-3.48c-2.43-0.82-4.72-1.68-6.85-2.63c-2.12-0.97-4.09-1.94-5.88-2.98c-3.59-2.05-6.48-4.18-8.72-6.07
	c-2.25-1.88-3.82-3.55-4.88-4.68c-0.53-0.56-0.91-1.02-1.17-1.33c-0.26-0.3-0.39-0.46-0.39-0.46s0.69,0.46,2,1.27
	c1.29,0.82,3.24,1.94,5.76,3.22c2.52,1.26,5.63,2.65,9.3,3.88c3.65,1.26,7.86,2.33,12.49,3.11c2.32,0.36,4.73,0.72,7.26,0.89
	c1.25,0.12,2.54,0.18,3.84,0.26c1.31,0.04,2.63,0.09,3.97,0.09c5.37,0.03,11.03-0.32,16.85-1.09c2.91-0.42,5.87-0.83,8.85-1.42
	c0.74-0.14,1.49-0.29,2.24-0.43c0.75-0.16,1.5-0.33,2.25-0.49c0.75-0.16,1.5-0.32,2.26-0.48c0.74-0.18,1.48-0.35,2.22-0.53
	c0.75-0.18,1.47-0.34,2.24-0.54c0.78-0.21,1.56-0.42,2.34-0.62l2.28-0.6l2.42-0.61c3.23-0.85,6.5-1.57,9.78-2.28
	c3.3-0.61,6.59-1.24,9.9-1.71l2.48-0.37c0.83-0.11,1.66-0.19,2.48-0.29c1.66-0.17,3.3-0.4,4.94-0.52c1.65-0.13,3.28-0.29,4.91-0.4
	c1.64-0.08,3.26-0.15,4.88-0.22c3.23-0.1,6.43-0.16,9.57-0.06c6.28,0.12,12.35,0.62,18.04,1.37c5.7,0.76,11.04,1.79,15.9,2.98
	c4.86,1.19,9.25,2.54,13.06,3.91c3.82,1.37,7.07,2.74,9.7,3.98c2.63,1.22,4.62,2.35,5.97,3.11
	C202.99,119.25,203.66,119.73,203.66,119.73z"/>
<path class="st0" d="M104.4,129.05c0,0,0.53-0.16,1.52-0.42c0.99-0.27,2.45-0.6,4.3-1c3.71-0.78,9.03-1.7,15.41-2.27
	c3.19-0.29,6.65-0.5,10.3-0.58c3.65-0.08,7.49-0.03,11.46,0.17c1.98,0.1,3.99,0.25,6.03,0.42c1.02,0.1,2.04,0.2,3.06,0.3
	c1.02,0.12,2.05,0.24,3.09,0.36c1.03,0.11,2.06,0.29,3.1,0.43c1.04,0.14,2.07,0.32,3.11,0.49c2.08,0.31,4.16,0.74,6.23,1.14
	l3.1,0.66c1.04,0.21,2.06,0.49,3.08,0.72l1.54,0.37c0.54,0.13,1.08,0.26,1.62,0.38c0.52,0.12,1.05,0.24,1.57,0.36
	c0.53,0.12,1.1,0.23,1.64,0.34c0.55,0.11,1.1,0.22,1.65,0.34c0.54,0.1,1.09,0.19,1.63,0.29c0.54,0.09,1.08,0.19,1.62,0.27
	c0.54,0.07,1.08,0.15,1.62,0.22c2.15,0.3,4.3,0.51,6.42,0.63c4.23,0.26,8.37,0.13,12.25-0.31c3.88-0.45,7.52-1.27,10.76-2.32
	c1.62-0.55,3.15-1.12,4.56-1.75c1.41-0.64,2.73-1.29,3.91-1.99c2.39-1.36,4.32-2.78,5.81-4.04c1.5-1.25,2.54-2.37,3.25-3.12
	c0.35-0.37,0.61-0.68,0.78-0.89c0.17-0.2,0.26-0.31,0.26-0.31s-0.46,0.3-1.33,0.84c-0.86,0.55-2.16,1.29-3.84,2.14
	c-1.68,0.84-3.75,1.77-6.19,2.58c-2.43,0.84-5.23,1.55-8.32,2.07c-1.55,0.24-3.15,0.48-4.83,0.59c-0.84,0.08-1.69,0.12-2.56,0.17
	c-0.87,0.03-1.75,0.06-2.64,0.06c-3.57,0.02-7.34-0.21-11.22-0.72c-1.94-0.28-3.91-0.55-5.89-0.95c-0.5-0.1-0.99-0.19-1.49-0.29
	c-0.5-0.11-1-0.22-1.5-0.32c-0.5-0.11-1-0.21-1.5-0.32c-0.49-0.12-0.98-0.24-1.48-0.35c-0.5-0.12-0.98-0.23-1.49-0.36
	c-0.52-0.14-1.04-0.28-1.56-0.42l-1.52-0.4l-1.61-0.41c-2.15-0.57-4.33-1.05-6.51-1.52c-2.2-0.41-4.39-0.83-6.59-1.14l-1.65-0.24
	c-0.55-0.08-1.1-0.13-1.65-0.19c-1.1-0.12-2.2-0.27-3.29-0.35c-1.1-0.09-2.19-0.19-3.27-0.26c-1.09-0.05-2.17-0.1-3.25-0.15
	c-2.15-0.07-4.28-0.11-6.38-0.04c-4.19,0.08-8.22,0.41-12.02,0.91c-3.8,0.5-7.35,1.19-10.59,1.98c-3.24,0.8-6.16,1.69-8.7,2.6
	c-2.54,0.91-4.71,1.83-6.46,2.65c-1.75,0.81-3.08,1.56-3.97,2.07C104.85,128.73,104.4,129.05,104.4,129.05z"/>
<g>
	<path class="st0" d="M163.25,36.37c-0.18-0.21-0.37-0.43-0.58-0.66c-0.2-0.24-0.39-0.49-0.6-0.75c-0.2-0.26-0.42-0.53-0.64-0.82
		c-0.21-0.29-0.42-0.59-0.64-0.9c-0.11-0.16-0.22-0.31-0.33-0.47c-0.11-0.16-0.21-0.33-0.32-0.5c-0.21-0.34-0.44-0.67-0.65-1.02
		c-0.41-0.72-0.86-1.44-1.24-2.22c-0.41-0.76-0.76-1.56-1.13-2.35c-0.32-0.81-0.67-1.61-0.94-2.43c-0.3-0.8-0.52-1.62-0.76-2.39
		c-0.11-0.39-0.2-0.78-0.29-1.16c-0.05-0.19-0.09-0.38-0.14-0.56c-0.04-0.19-0.07-0.37-0.11-0.55c-0.07-0.36-0.14-0.72-0.21-1.06
		c-0.06-0.34-0.1-0.68-0.15-1c-0.05-0.32-0.1-0.62-0.13-0.91c-0.03-0.29-0.06-0.57-0.08-0.83c-0.03-0.26-0.05-0.5-0.07-0.73
		c-0.02-0.23-0.02-0.43-0.04-0.62c-0.02-0.44-0.04-0.76-0.05-0.96l-0.73-5.81c-0.65,1.55-9.59,23.45,3.82,29.79
		c0,0,3.17,1.24,6.3-0.03c0.1-0.04,0.2-0.08,0.3-0.12c0.06-0.02,0.12-0.05,0.18-0.08c-0.08-0.08-0.17-0.17-0.26-0.28
		C163.6,36.78,163.43,36.58,163.25,36.37"/>
	<path class="st0" d="M166.93,21.83c-0.93-0.95-2.02-1.92-3.29-2.9c-10.5-8.08-10.18-11.35-10.18-11.35l-0.04,0.09
		c0.19,1.48,0.5,3.93,0.73,5.77c-0.01-0.11-0.01-0.17-0.01-0.17s0.07,0.42,0.2,1.16c0.03,0.18,0.06,0.39,0.11,0.61
		c0.05,0.22,0.1,0.46,0.16,0.71c0.06,0.25,0.12,0.52,0.18,0.8c0.07,0.28,0.16,0.57,0.24,0.88c0.09,0.31,0.17,0.63,0.27,0.95
		c0.11,0.32,0.22,0.66,0.33,1.01c0.06,0.17,0.11,0.35,0.17,0.52c0.07,0.17,0.13,0.35,0.2,0.53c0.14,0.35,0.27,0.72,0.42,1.08
		c0.32,0.72,0.62,1.48,1.01,2.21c0.35,0.75,0.77,1.47,1.17,2.2c0.44,0.71,0.86,1.43,1.34,2.09c0.45,0.68,0.95,1.32,1.41,1.94
		c0.24,0.3,0.49,0.59,0.73,0.88c0.12,0.14,0.24,0.28,0.35,0.42c0.12,0.13,0.24,0.27,0.36,0.4c0.24,0.26,0.47,0.51,0.69,0.76
		c0.23,0.24,0.46,0.46,0.68,0.68c0.22,0.21,0.43,0.43,0.63,0.62c0.2,0.18,0.4,0.36,0.58,0.52c0.18,0.16,0.35,0.32,0.51,0.46
		c0.16,0.14,0.33,0.27,0.47,0.39c0.17,0.14,0.31,0.26,0.44,0.36c0.44-0.41,0.84-0.85,1.19-1.33
		C165.46,30.59,164.95,25.84,166.93,21.83"/>
	<path class="st0" d="M188.08,0.12l-0.94,7.51c-0.01,0.25-0.04,0.67-0.07,1.24c-0.01,0.24-0.02,0.51-0.05,0.8
		c-0.03,0.29-0.06,0.6-0.09,0.94c-0.03,0.34-0.07,0.69-0.11,1.07c-0.04,0.38-0.11,0.77-0.17,1.18c-0.07,0.41-0.12,0.84-0.2,1.29
		c-0.09,0.44-0.18,0.9-0.27,1.37c-0.05,0.24-0.1,0.47-0.14,0.72c-0.06,0.24-0.12,0.48-0.18,0.72c-0.12,0.49-0.24,0.99-0.38,1.5
		c-0.3,1-0.59,2.05-0.98,3.09c-0.34,1.05-0.79,2.08-1.21,3.13c-0.47,1.02-0.92,2.06-1.46,3.04c-0.49,1-1.07,1.94-1.6,2.86
		c-0.28,0.45-0.57,0.89-0.85,1.32c-0.14,0.22-0.28,0.43-0.42,0.64c-0.14,0.2-0.29,0.41-0.43,0.61c-0.29,0.4-0.56,0.79-0.83,1.16
		c-0.27,0.37-0.56,0.72-0.82,1.06c-0.27,0.34-0.52,0.66-0.77,0.97c-0.26,0.3-0.51,0.59-0.75,0.86c-0.23,0.27-0.46,0.52-0.66,0.76
		c-0.12,0.13-0.23,0.25-0.33,0.36c0.08,0.03,0.15,0.07,0.23,0.1c0.13,0.05,0.26,0.1,0.39,0.15c4.04,1.63,8.14,0.04,8.14,0.04
		C200.46,30.42,188.92,2.12,188.08,0.12"/>
	<path class="st0" d="M175.07,32.1c0.29-0.32,0.59-0.65,0.9-0.98c0.15-0.17,0.31-0.34,0.47-0.52c0.15-0.18,0.3-0.36,0.46-0.55
		c0.31-0.37,0.63-0.75,0.94-1.14c0.6-0.8,1.24-1.62,1.82-2.5c0.62-0.86,1.16-1.79,1.73-2.71c0.52-0.94,1.07-1.88,1.52-2.84
		c0.49-0.95,0.89-1.92,1.3-2.85c0.19-0.47,0.36-0.94,0.54-1.4c0.09-0.23,0.17-0.46,0.26-0.68c0.08-0.23,0.15-0.45,0.22-0.68
		c0.15-0.45,0.29-0.88,0.43-1.3c0.13-0.42,0.23-0.84,0.35-1.23c0.11-0.4,0.22-0.78,0.31-1.14c0.08-0.37,0.16-0.71,0.23-1.04
		c0.07-0.33,0.14-0.63,0.21-0.92c0.06-0.28,0.1-0.55,0.14-0.78c0.17-0.95,0.26-1.49,0.26-1.49s0,0.08-0.01,0.22
		c0.3-2.38,0.7-5.54,0.94-7.46C188.04,0.04,188.03,0,188.03,0s0.41,4.21-13.15,14.66c-1.89,1.45-3.46,2.89-4.76,4.29
		c-0.83,0.89-1.49,1.87-2,2.89c-1.98,4.01-1.47,8.76,1.04,12.31c0.48,0.68,1.03,1.31,1.65,1.89c0.16-0.13,0.35-0.29,0.57-0.47
		c0.18-0.15,0.4-0.32,0.61-0.51c0.2-0.18,0.42-0.38,0.65-0.59c0.23-0.21,0.48-0.44,0.75-0.67c0.26-0.24,0.53-0.52,0.81-0.8
		C174.48,32.7,174.78,32.42,175.07,32.1"/>
</g>
</svg>
